<?xml version="1.0" encoding="utf-8"?>
<!-- Generator: Adobe Illustrator 25.4.1, SVG Export Plug-In . SVG Version: 6.00 Build 0)  -->
<svg version="1.1" id="Layer_1" xmlns="http://www.w3.org/2000/svg" xmlns:xlink="http://www.w3.org/1999/xlink" x="0px" y="0px"
	 width="538px" height="150.5186768px" viewBox="0 0 538 150.5186768" style="enable-background:new 0 0 538 150.5186768;"
	 xml:space="preserve">
<style type="text/css">
	.st0{fill:#DC233C;}
	.st1{fill:#FFFFFF;}
</style>
<g>
	<polygon class="st0" points="411.3723145,48.3479004 426.8522949,48.3479004 419.1120605,29.0837402 	"/>
	<path class="st0" d="M270.6779785,28.1379395c-1.777832-1.5478516-4.4155273-2.3222656-7.9121094-2.3222656h-9.4599609v17.6303711
		h9.4599609c3.496582,0,6.1342773-0.7592773,7.9121094-2.2792969c1.7763672-1.5185547,2.6660156-3.6831055,2.6660156-6.4926758
		C273.3439941,31.8654785,272.4543457,29.685791,270.6779785,28.1379395z"/>
	<polygon class="st0" points="48.7131348,48.3479004 64.1931152,48.3479004 56.4528809,29.0837402 	"/>
	<path class="st0" d="M0,0v85h538V0H0z M73.9108887,72.5998535l-4.7299805-11.6958008H43.7248535L38.994873,72.5998535H21.6228027
		l26.5742188-60.2001953H64.967041l26.659668,60.2001953H73.9108887z M150.7946777,72.5998535l-0.171875-31.9057617
		l-15.4799805,25.9716797h-7.5683594l-15.394043-25.1118164v31.0458984H96.442627V12.3996582h14.0180664l21.1557617,34.7441406
		l20.6401367-34.7441406h14.0180664l0.171875,60.2001953H150.7946777z M226.8181152,72.5998535H178.486084V12.3996582h47.2138672
		v13.1582031H195.342041v10.1479492h26.7460938v12.7280273H195.342041v11.0078125h31.4760742V72.5998535z M273.5158691,72.5998535
		l-10.921875-15.9960938h-9.2880859v15.9960938h-17.027832V12.3996582h27.5200195
		c5.4462891,0,10.1762695,0.9033203,14.1899414,2.7089844c4.0126953,1.8061523,7.1083984,4.3862305,9.2880859,7.7402344
		c2.1782227,3.3540039,3.2680664,7.2963867,3.2680664,11.8251953c0,4.3574219-1.0185547,8.15625-3.0532227,11.3950195
		c-2.0356445,3.2397461-4.9448242,5.7763672-8.7290039,7.6108398l12.9863281,18.9199219H273.5158691z M316.9445801,72.5998535
		h-17.027832V12.3996582h17.027832V72.5998535z M373.9621582,70.8796387
		c-4.4155273,1.9487305-9.3740234,2.9243164-14.8779297,2.9243164c-6.3076172,0-11.96875-1.3330078-16.9853516-3.9990234
		c-5.0175781-2.6660156-8.9584961-6.3774414-11.824707-11.137207c-2.8676758-4.7583008-4.300293-10.1479492-4.300293-16.1679688
		s1.4326172-11.4082031,4.300293-16.1679688c2.8662109-4.7583008,6.8071289-8.4707031,11.824707-11.1367188
		c5.0166016-2.6660156,10.6777344-3.9990234,16.9853516-3.9990234c5.5039062,0,10.4624023,0.9755859,14.8779297,2.9238281
		c4.4140625,1.949707,8.0839844,4.7597656,11.0078125,8.4282227l-10.8359375,9.8037109
		c-3.8994141-4.7001953-8.6293945-7.0517578-14.1899414-7.0517578c-3.2680664,0-6.1787109,0.7172852-8.7290039,2.1499023
		c-2.5517578,1.4335938-4.5297852,3.4545898-5.934082,6.0629883c-1.4057617,2.609375-2.1069336,5.6044922-2.1069336,8.9868164
		c0,3.3837891,0.7011719,6.3789062,2.1069336,8.9873047c1.4042969,2.609375,3.3823242,4.6303711,5.934082,6.0629883
		c2.550293,1.4335938,5.4609375,2.1499023,8.7290039,2.1499023c5.5605469,0,10.2905273-2.3500977,14.1899414-7.0522461
		l10.8359375,9.8041992C382.0461426,66.1218262,378.3762207,68.9313965,373.9621582,70.8796387z M436.5700684,72.5998535
		l-4.7299805-11.6958008h-25.4560547l-4.7299805,11.6958008h-17.3720703l26.5742188-60.2001953h16.7700195l26.659668,60.2001953
		H436.5700684z M516.3771973,72.5998535h-14.0175781l-26.5742188-32.078125v32.078125h-16.684082V12.3996582h14.0180664
		l26.5742188,32.078125v-32.078125h16.6835938V72.5998535z"/>
</g>
<g>
	<path class="st1" d="M91.0615234,96.1778564l-17.2763672,53.2753906H57.6499023l-10.1982422-32.421875l-10.6552734,32.421875
		H20.6616211L3.3852539,96.1778564h15.5258789l10.7314453,34.0205078L40.90625,96.1778564h13.8515625l10.7314453,34.3242188
		l11.1879883-34.3242188H91.0615234z"/>
	<path class="st1" d="M107.4628906,146.9415283c-4.4907227-2.3837891-8.0175781-5.6816406-10.5791016-9.8935547
		c-2.5625-4.2109375-3.8432617-8.9550781-3.8432617-14.2324219c0-5.2763672,1.2807617-10.0205078,3.8432617-14.2324219
		c2.5615234-4.2109375,6.0883789-7.5078125,10.5791016-9.8935547c4.4902344-2.3847656,9.5512695-3.5771484,15.1831055-3.5771484
		c5.6323242,0,10.6933594,1.1923828,15.1835938,3.5771484c4.4907227,2.3857422,8.0166016,5.6826172,10.5791016,9.8935547
		c2.5615234,4.2119141,3.8432617,8.9560547,3.8432617,14.2324219c0,5.2773438-1.2817383,10.0214844-3.8432617,14.2324219
		c-2.5625,4.2119141-6.0883789,7.5097656-10.5791016,9.8935547c-4.4902344,2.3857422-9.5512695,3.5771484-15.1835938,3.5771484
		C117.0141602,150.5186768,111.953125,149.3272705,107.4628906,146.9415283z M129.9526367,136.1339111
		c2.1811523-1.2675781,3.90625-3.0556641,5.175293-5.3652344c1.2675781-2.3076172,1.902832-4.9589844,1.902832-7.953125
		c0-2.9931641-0.6352539-5.6435547-1.902832-7.953125c-1.269043-2.3085938-2.9941406-4.0966797-5.175293-5.3662109
		c-2.1821289-1.2675781-4.6176758-1.9023438-7.3066406-1.9023438c-2.6894531,0-5.125,0.6347656-7.3061523,1.9023438
		c-2.1821289,1.2695312-3.9077148,3.0576172-5.175293,5.3662109c-1.269043,2.3095703-1.902832,4.9599609-1.902832,7.953125
		c0,2.9941406,0.6337891,5.6455078,1.902832,7.953125c1.2675781,2.3095703,2.9931641,4.0976562,5.175293,5.3652344
		c2.1811523,1.2695312,4.6166992,1.9033203,7.3061523,1.9033203
		C125.3349609,138.0372314,127.7705078,137.4034424,129.9526367,136.1339111z"/>
	<path class="st1" d="M183.4560547,135.2969971h-8.2197266v14.15625h-15.0693359V96.1778564h24.3544922
		c4.8198242,0,9.0053711,0.7988281,12.5576172,2.3974609c3.5507812,1.5976562,6.2910156,3.8818359,8.2197266,6.8496094
		c1.9277344,2.9677734,2.8920898,6.4570312,2.8920898,10.4648438c0,3.8564453-0.9013672,7.21875-2.7016602,10.0839844
		c-1.8017578,2.8671875-4.3764648,5.1123047-7.7250977,6.7353516l11.4921875,16.7441406H193.121582L183.4560547,135.2969971z
		 M190.6098633,110.1055908c-1.5732422-1.3701172-3.9077148-2.0546875-7.0019531-2.0546875h-8.371582v15.6015625h8.371582
		c3.0942383,0,5.4287109-0.671875,7.0019531-2.0166016c1.5722656-1.34375,2.359375-3.2597656,2.359375-5.7460938
		C192.9692383,113.4044189,192.1821289,111.475708,190.6098633,110.1055908z"/>
	<path class="st1" d="M216.4863281,96.1778564h15.0693359v41.3261719h25.4199219v11.9492188h-40.4892578V96.1778564z"/>
	<path class="st1" d="M262.9106445,96.1778564h25.1914062c5.8344727,0,11.0097656,1.0917969,15.5263672,3.2724609
		c4.5151367,2.1826172,8.0161133,5.2773438,10.5029297,9.2851562c2.4853516,4.0087891,3.7290039,8.7021484,3.7290039,14.0800781
		c0,5.3789062-1.2436523,10.0722656-3.7290039,14.0800781c-2.4868164,4.0087891-5.987793,7.1044922-10.5029297,9.2851562
		c-4.5166016,2.1816406-9.6918945,3.2724609-15.5263672,3.2724609h-25.1914062V96.1778564z M287.4931641,137.4278564
		c4.5668945,0,8.2319336-1.2939453,10.9975586-3.8808594c2.7651367-2.5878906,4.1479492-6.1650391,4.1479492-10.7314453
		s-1.3828125-8.1435547-4.1479492-10.7314453c-2.765625-2.5878906-6.4306641-3.8808594-10.9975586-3.8808594h-9.5131836v29.2246094
		H287.4931641z"/>
	<path class="st1" d="M362.6870117,98.5753174c3.5507812,1.5976562,6.2910156,3.8818359,8.2207031,6.8496094
		c1.9257812,2.9677734,2.890625,6.4570312,2.890625,10.4648438c0,4.0087891-0.9648438,7.484375-2.890625,10.4267578
		c-1.9296875,2.9433594-4.6699219,5.2128906-8.2207031,6.8115234c-3.5527344,1.5986328-7.7382812,2.3974609-12.5576172,2.3974609
		h-9.2851562v13.9277344h-15.0693359V96.1778564h24.3544922C354.9487305,96.1778564,359.1342773,96.9766846,362.6870117,98.5753174z
		 M356.2182617,121.6358643c1.5722656-1.34375,2.359375-3.2597656,2.359375-5.7460938
		c0-2.4853516-0.7871094-4.4140625-2.359375-5.7841797c-1.5742188-1.3701172-3.9082031-2.0546875-7.0024414-2.0546875h-8.371582
		v15.6015625h8.371582C352.3100586,123.6524658,354.644043,122.9805908,356.2182617,121.6358643z"/>
	<path class="st1" d="M414.1362305,139.1026611h-22.5283203l-4.1855469,10.3505859h-15.3740234l23.5175781-53.2753906h14.8408203
		l23.59375,53.2753906h-15.6787109L414.1362305,139.1026611z M409.7211914,127.9903564l-6.8496094-17.0478516l-6.8496094,17.0478516
		H409.7211914z"/>
	<path class="st1" d="M446.9399414,108.1270752h-16.3632812V96.1778564h47.7197266v11.9492188h-16.2871094v41.3261719h-15.0693359
		V108.1270752z"/>
	<path class="st1" d="M534.6147461,96.1778564v53.2753906h-15.0693359v-20.7773438h-20.5498047v20.7773438h-15.0693359V96.1778564
		h15.0693359v20.0166016h20.5498047V96.1778564H534.6147461z"/>
</g>
</svg>
